STARTFONT 2.1
COMMENT
COMMENT Created by
COMMENT             Ami2Bdf v0.03
COMMENT
COMMENT             Scott Lawrence    amigafont@umlautllama.com
COMMENT                               http://www.umlautllama.com
COMMENT
FONT -Commodore-ruby normal-medium-R-normal--12--96-96-P-70-winsys-1
SIZE 12 96 96
FONTBOUNDINGBOX 15 12 0 -3
STARTPROPERTIES 3
FONT_DESCENT 3
FONT_ASCENT  9
DEFAULTCHAR  8192
ENDPROPERTIES
CHARS 224
STARTCHAR 0
ENCODING  32
SWIDTH    9000 0
DWIDTH    9 0
BBX       9 12 0 -3
BITMAP
00
00
00
00
00
00
00
00
00
00
00
00
ENDCHAR
STARTCHAR 1
ENCODING  33
SWIDTH    5000 0
DWIDTH    5 0
BBX       5 12 0 -3
BITMAP
60
f0
f0
60
60
60
00
60
60
00
00
00
ENDCHAR
STARTCHAR 2
ENCODING  34
SWIDTH    7000 0
DWIDTH    7 0
BBX       7 12 0 -3
BITMAP
cc
cc
cc
00
00
00
00
00
00
00
00
00
ENDCHAR
STARTCHAR 3
ENCODING  35
SWIDTH    10000 0
DWIDTH    10 0
BBX       10 12 0 -3
BITMAP
6300
6300
ff80
6300
6300
ff80
6300
6300
0000
0000
0000
0000
ENDCHAR
STARTCHAR 4
ENCODING  36
SWIDTH    9000 0
DWIDTH    9 0
BBX       9 12 0 -3
BITMAP
18
18
7f
c0
7e
03
fe
18
18
00
00
00
ENDCHAR
STARTCHAR 5
ENCODING  37
SWIDTH    10000 0
DWIDTH    10 0
BBX       10 12 0 -3
BITMAP
0100
e300
e600
0c00
1800
3380
6380
4000
0000
0000
0000
0000
ENDCHAR
STARTCHAR 6
ENCODING  38
SWIDTH    10000 0
DWIDTH    10 0
BBX       10 12 0 -3
BITMAP
0000
0000
3c00
6600
6400
3b00
ce00
c600
7b80
0000
0000
0000
ENDCHAR
STARTCHAR 7
ENCODING  39
SWIDTH    5000 0
DWIDTH    5 0
BBX       5 12 0 -3
BITMAP
60
60
c0
00
00
00
00
00
00
00
00
00
ENDCHAR
STARTCHAR 8
ENCODING  40
SWIDTH    9000 0
DWIDTH    9 0
BBX       9 12 0 -3
BITMAP
0e
10
60
c0
c0
c0
60
10
0e
00
00
00
ENDCHAR
STARTCHAR 9
ENCODING  41
SWIDTH    9000 0
DWIDTH    9 0
BBX       9 12 0 -3
BITMAP
e0
10
0c
06
06
06
0c
10
e0
00
00
00
ENDCHAR
STARTCHAR 10
ENCODING  42
SWIDTH    11000 0
DWIDTH    11 0
BBX       11 12 0 -3
BITMAP
0000
0000
2300
1600
ffc0
1a00
3100
0000
0000
0000
0000
0000
ENDCHAR
STARTCHAR 11
ENCODING  43
SWIDTH    9000 0
DWIDTH    9 0
BBX       9 12 0 -3
BITMAP
00
00
18
18
ff
18
18
00
00
00
00
00
ENDCHAR
STARTCHAR 12
ENCODING  44
SWIDTH    5000 0
DWIDTH    5 0
BBX       5 12 0 -3
BITMAP
00
00
00
00
00
00
00
60
60
c0
00
00
ENDCHAR
STARTCHAR 13
ENCODING  45
SWIDTH    9000 0
DWIDTH    9 0
BBX       9 12 0 -3
BITMAP
00
00
00
00
ff
00
00
00
00
00
00
00
ENDCHAR
STARTCHAR 14
ENCODING  46
SWIDTH    4000 0
DWIDTH    4 0
BBX       4 12 0 -3
BITMAP
00
00
00
00
00
00
00
c0
c0
00
00
00
ENDCHAR
STARTCHAR 15
ENCODING  47
SWIDTH    12000 0
DWIDTH    12 0
BBX       12 12 0 -3
BITMAP
0040
00c0
0180
0300
0600
0c00
1800
3000
6000
c000
8000
0000
ENDCHAR
STARTCHAR 16
ENCODING  48
SWIDTH    10000 0
DWIDTH    10 0
BBX       10 12 0 -3
BITMAP
7f00
c180
c380
c580
c980
d180
e180
c180
7f00
0000
0000
0000
ENDCHAR
STARTCHAR 17
ENCODING  49
SWIDTH    7000 0
DWIDTH    7 0
BBX       7 12 0 -3
BITMAP
30
70
f0
30
30
30
30
30
fc
00
00
00
ENDCHAR
STARTCHAR 18
ENCODING  50
SWIDTH    9000 0
DWIDTH    9 0
BBX       9 12 0 -3
BITMAP
7c
86
03
06
0c
18
31
63
ff
00
00
00
ENDCHAR
STARTCHAR 19
ENCODING  51
SWIDTH    9000 0
DWIDTH    9 0
BBX       9 12 0 -3
BITMAP
7e
83
03
03
0e
03
03
83
7c
00
00
00
ENDCHAR
STARTCHAR 20
ENCODING  52
SWIDTH    10000 0
DWIDTH    10 0
BBX       10 12 0 -3
BITMAP
0700
0f00
1b00
3300
6300
c300
ff80
0300
0780
0000
0000
0000
ENDCHAR
STARTCHAR 21
ENCODING  53
SWIDTH    9000 0
DWIDTH    9 0
BBX       9 12 0 -3
BITMAP
fe
c0
c0
c0
fc
03
03
83
7e
00
00
00
ENDCHAR
STARTCHAR 22
ENCODING  54
SWIDTH    10000 0
DWIDTH    10 0
BBX       10 12 0 -3
BITMAP
3c00
4000
c000
c000
df00
e180
c180
6300
3e00
0000
0000
0000
ENDCHAR
STARTCHAR 23
ENCODING  55
SWIDTH    11000 0
DWIDTH    11 0
BBX       11 12 0 -3
BITMAP
ffc0
c180
8300
0600
0c00
0c00
0c00
0c00
0c00
0000
0000
0000
ENDCHAR
STARTCHAR 24
ENCODING  56
SWIDTH    10000 0
DWIDTH    10 0
BBX       10 12 0 -3
BITMAP
7f00
c180
4100
3e00
4100
c180
c180
4100
3e00
0000
0000
0000
ENDCHAR
STARTCHAR 25
ENCODING  57
SWIDTH    10000 0
DWIDTH    10 0
BBX       10 12 0 -3
BITMAP
3e00
6300
c180
c380
7d80
0180
0180
0100
0e00
0000
0000
0000
ENDCHAR
STARTCHAR 26
ENCODING  58
SWIDTH    5000 0
DWIDTH    5 0
BBX       5 12 0 -3
BITMAP
00
00
00
c0
c0
00
00
c0
c0
00
00
00
ENDCHAR
STARTCHAR 27
ENCODING  59
SWIDTH    6000 0
DWIDTH    6 0
BBX       6 12 0 -3
BITMAP
00
00
00
60
60
00
00
60
60
80
00
00
ENDCHAR
STARTCHAR 28
ENCODING  60
SWIDTH    8000 0
DWIDTH    8 0
BBX       8 12 0 -3
BITMAP
0c
18
30
60
c0
60
30
18
0c
00
00
00
ENDCHAR
STARTCHAR 29
ENCODING  61
SWIDTH    8000 0
DWIDTH    8 0
BBX       8 12 0 -3
BITMAP
00
00
00
fe
00
00
fe
00
00
00
00
00
ENDCHAR
STARTCHAR 30
ENCODING  62
SWIDTH    8000 0
DWIDTH    8 0
BBX       8 12 0 -3
BITMAP
c0
60
30
18
0c
18
30
60
c0
00
00
00
ENDCHAR
STARTCHAR 31
ENCODING  63
SWIDTH    9000 0
DWIDTH    9 0
BBX       9 12 0 -3
BITMAP
7c
c6
06
0c
18
18
00
18
18
00
00
00
ENDCHAR
STARTCHAR 32
ENCODING  64
SWIDTH    15000 0
DWIDTH    15 0
BBX       15 12 0 -3
BITMAP
1fe0
2010
4788
c8cc
c3cc
c4cc
cccc
c7f8
4000
2010
1fe0
0000
ENDCHAR
STARTCHAR 33
ENCODING  65
SWIDTH    12000 0
DWIDTH    12 0
BBX       12 12 0 -3
BITMAP
0400
0e00
1300
1300
2180
3f80
40c0
40c0
e1e0
0000
0000
0000
ENDCHAR
STARTCHAR 34
ENCODING  66
SWIDTH    11000 0
DWIDTH    11 0
BBX       11 12 0 -3
BITMAP
ff80
60c0
60c0
60c0
7f80
60c0
60c0
60c0
ff80
0000
0000
0000
ENDCHAR
STARTCHAR 35
ENCODING  67
SWIDTH    12000 0
DWIDTH    12 0
BBX       12 12 0 -3
BITMAP
3fa0
6060
c020
c000
c000
c000
c020
6040
3f80
0000
0000
0000
ENDCHAR
STARTCHAR 36
ENCODING  68
SWIDTH    11000 0
DWIDTH    11 0
BBX       11 12 0 -3
BITMAP
ff00
6180
60c0
60c0
60c0
60c0
60c0
6180
ff00
0000
0000
0000
ENDCHAR
STARTCHAR 37
ENCODING  69
SWIDTH    10000 0
DWIDTH    10 0
BBX       10 12 0 -3
BITMAP
ff80
6080
6000
6200
7e00
6200
6000
6080
ff80
0000
0000
0000
ENDCHAR
STARTCHAR 38
ENCODING  70
SWIDTH    10000 0
DWIDTH    10 0
BBX       10 12 0 -3
BITMAP
ff80
6080
6000
6200
7e00
6200
6000
6000
f000
0000
0000
0000
ENDCHAR
STARTCHAR 39
ENCODING  71
SWIDTH    13000 0
DWIDTH    13 0
BBX       13 12 0 -3
BITMAP
3fa0
6060
c020
c000
c000
c0f0
c060
6060
3fc0
0000
0000
0000
ENDCHAR
STARTCHAR 40
ENCODING  72
SWIDTH    12000 0
DWIDTH    12 0
BBX       12 12 0 -3
BITMAP
f1e0
60c0
60c0
60c0
7fc0
60c0
60c0
60c0
f1e0
0000
0000
0000
ENDCHAR
STARTCHAR 41
ENCODING  73
SWIDTH    6000 0
DWIDTH    6 0
BBX       6 12 0 -3
BITMAP
f0
60
60
60
60
60
60
60
f0
00
00
00
ENDCHAR
STARTCHAR 42
ENCODING  74
SWIDTH    10000 0
DWIDTH    10 0
BBX       10 12 0 -3
BITMAP
0780
0300
0300
0300
0300
0300
0300
8300
7e00
0000
0000
0000
ENDCHAR
STARTCHAR 43
ENCODING  75
SWIDTH    11000 0
DWIDTH    11 0
BBX       11 12 0 -3
BITMAP
f1c0
6100
6200
6400
7800
6c00
6600
6300
f3c0
0000
0000
0000
ENDCHAR
STARTCHAR 44
ENCODING  76
SWIDTH    10000 0
DWIDTH    10 0
BBX       10 12 0 -3
BITMAP
f000
6000
6000
6000
6000
6000
6080
6180
ff80
0000
0000
0000
ENDCHAR
STARTCHAR 45
ENCODING  77
SWIDTH    14000 0
DWIDTH    14 0
BBX       14 12 0 -3
BITMAP
e038
7070
7070
58b0
58b0
4d30
4d30
4630
e678
0000
0000
0000
ENDCHAR
STARTCHAR 46
ENCODING  78
SWIDTH    12000 0
DWIDTH    12 0
BBX       12 12 0 -3
BITMAP
c0e0
6040
7040
7840
5c40
4e40
4740
43c0
e1c0
0000
0000
0000
ENDCHAR
STARTCHAR 47
ENCODING  79
SWIDTH    12000 0
DWIDTH    12 0
BBX       12 12 0 -3
BITMAP
3f80
60c0
c060
c060
c060
c060
c060
60c0
3f80
0000
0000
0000
ENDCHAR
STARTCHAR 48
ENCODING  80
SWIDTH    11000 0
DWIDTH    11 0
BBX       11 12 0 -3
BITMAP
ff80
60c0
60c0
60c0
7f80
6000
6000
6000
f000
0000
0000
0000
ENDCHAR
STARTCHAR 49
ENCODING  81
SWIDTH    12000 0
DWIDTH    12 0
BBX       12 12 0 -3
BITMAP
3f80
60c0
c060
c060
c060
c060
c060
60c0
3f80
0c00
0600
0180
ENDCHAR
STARTCHAR 50
ENCODING  82
SWIDTH    11000 0
DWIDTH    11 0
BBX       11 12 0 -3
BITMAP
ff80
60c0
60c0
60c0
7f80
6c00
6600
6300
f3c0
0000
0000
0000
ENDCHAR
STARTCHAR 51
ENCODING  83
SWIDTH    11000 0
DWIDTH    11 0
BBX       11 12 0 -3
BITMAP
1f40
70c0
e040
3800
0e00
0380
81c0
c380
be00
0000
0000
0000
ENDCHAR
STARTCHAR 52
ENCODING  84
SWIDTH    13000 0
DWIDTH    13 0
BBX       13 12 0 -3
BITMAP
fff0
c630
8610
0600
0600
0600
0600
0600
0f00
0000
0000
0000
ENDCHAR
STARTCHAR 53
ENCODING  85
SWIDTH    12000 0
DWIDTH    12 0
BBX       12 12 0 -3
BITMAP
f1e0
6040
6040
6040
6040
6040
6040
3080
1f00
0000
0000
0000
ENDCHAR
STARTCHAR 54
ENCODING  86
SWIDTH    11000 0
DWIDTH    11 0
BBX       11 12 0 -3
BITMAP
f1c0
6080
6080
3100
3100
1a00
1a00
0c00
0c00
0000
0000
0000
ENDCHAR
STARTCHAR 55
ENCODING  87
SWIDTH    14000 0
DWIDTH    14 0
BBX       14 12 0 -3
BITMAP
f7b8
6310
6310
6310
35a0
35a0
35a0
18c0
18c0
0000
0000
0000
ENDCHAR
STARTCHAR 56
ENCODING  88
SWIDTH    11000 0
DWIDTH    11 0
BBX       11 12 0 -3
BITMAP
f1c0
6080
3100
1a00
0c00
1600
2300
4180
e1c0
0000
0000
0000
ENDCHAR
STARTCHAR 57
ENCODING  89
SWIDTH    11000 0
DWIDTH    11 0
BBX       11 12 0 -3
BITMAP
f1c0
6080
3100
1a00
0c00
0c00
0c00
0c00
1e00
0000
0000
0000
ENDCHAR
STARTCHAR 58
ENCODING  90
SWIDTH    10000 0
DWIDTH    10 0
BBX       10 12 0 -3
BITMAP
ff80
c180
8300
0600
0c00
1800
3080
6180
ff80
0000
0000
0000
ENDCHAR
STARTCHAR 59
ENCODING  91
SWIDTH    6000 0
DWIDTH    6 0
BBX       6 12 0 -3
BITMAP
f8
c0
c0
c0
c0
c0
c0
c0
c0
c0
c0
f8
ENDCHAR
STARTCHAR 60
ENCODING  92
SWIDTH    12000 0
DWIDTH    12 0
BBX       12 12 0 -3
BITMAP
8000
c000
6000
3000
1800
0c00
0600
0300
0180
00c0
0040
0000
ENDCHAR
STARTCHAR 61
ENCODING  93
SWIDTH    6000 0
DWIDTH    6 0
BBX       6 12 0 -3
BITMAP
f8
18
18
18
18
18
18
18
18
18
18
f8
ENDCHAR
STARTCHAR 62
ENCODING  94
SWIDTH    8000 0
DWIDTH    8 0
BBX       8 12 0 -3
BITMAP
30
78
cc
00
00
00
00
00
00
00
00
00
ENDCHAR
STARTCHAR 63
ENCODING  95
SWIDTH    14000 0
DWIDTH    14 0
BBX       14 12 0 -3
BITMAP
0000
0000
0000
0000
0000
0000
0000
0000
0000
0000
fffc
0000
ENDCHAR
STARTCHAR 64
ENCODING  96
SWIDTH    6000 0
DWIDTH    6 0
BBX       6 12 0 -3
BITMAP
e0
30
18
00
00
00
00
00
00
00
00
00
ENDCHAR
STARTCHAR 65
ENCODING  97
SWIDTH    10000 0
DWIDTH    10 0
BBX       10 12 0 -3
BITMAP
0000
0000
0000
7e00
8300
3f00
4300
c300
7d80
0000
0000
0000
ENDCHAR
STARTCHAR 66
ENCODING  98
SWIDTH    10000 0
DWIDTH    10 0
BBX       10 12 0 -3
BITMAP
e000
6000
6000
6f00
7180
6180
6180
6180
3f00
0000
0000
0000
ENDCHAR
STARTCHAR 67
ENCODING  99
SWIDTH    9000 0
DWIDTH    9 0
BBX       9 12 0 -3
BITMAP
00
00
00
7e
c3
c0
c0
c1
7e
00
00
00
ENDCHAR
STARTCHAR 68
ENCODING  100
SWIDTH    10000 0
DWIDTH    10 0
BBX       10 12 0 -3
BITMAP
0700
0300
0300
7b00
c700
c300
c300
c300
7d80
0000
0000
0000
ENDCHAR
STARTCHAR 69
ENCODING  101
SWIDTH    9000 0
DWIDTH    9 0
BBX       9 12 0 -3
BITMAP
00
00
00
7e
c3
ff
c0
c1
7e
00
00
00
ENDCHAR
STARTCHAR 70
ENCODING  102
SWIDTH    9000 0
DWIDTH    9 0
BBX       9 12 0 -3
BITMAP
1c
33
30
fc
30
30
30
30
78
00
00
00
ENDCHAR
STARTCHAR 71
ENCODING  103
SWIDTH    10000 0
DWIDTH    10 0
BBX       10 12 0 -3
BITMAP
0000
0000
0000
3d80
6300
6300
3e00
4000
3f00
4380
e100
7e00
ENDCHAR
STARTCHAR 72
ENCODING  104
SWIDTH    11000 0
DWIDTH    11 0
BBX       11 12 0 -3
BITMAP
e000
6000
6000
6f00
7180
6180
6180
6180
f3c0
0000
0000
0000
ENDCHAR
STARTCHAR 73
ENCODING  105
SWIDTH    6000 0
DWIDTH    6 0
BBX       6 12 0 -3
BITMAP
60
60
00
e0
60
60
60
60
f0
00
00
00
ENDCHAR
STARTCHAR 74
ENCODING  106
SWIDTH    7000 0
DWIDTH    7 0
BBX       7 12 0 -3
BITMAP
0c
0c
00
1c
0c
0c
0c
0c
0c
0c
d8
70
ENDCHAR
STARTCHAR 75
ENCODING  107
SWIDTH    10000 0
DWIDTH    10 0
BBX       10 12 0 -3
BITMAP
e000
6000
6380
6200
6400
7800
6c00
6600
f780
0000
0000
0000
ENDCHAR
STARTCHAR 76
ENCODING  108
SWIDTH    6000 0
DWIDTH    6 0
BBX       6 12 0 -3
BITMAP
e0
60
60
60
60
60
60
60
f0
00
00
00
ENDCHAR
STARTCHAR 77
ENCODING  109
SWIDTH    13000 0
DWIDTH    13 0
BBX       13 12 0 -3
BITMAP
0000
0000
0000
ddc0
6660
6660
6660
6660
ef70
0000
0000
0000
ENDCHAR
STARTCHAR 78
ENCODING  110
SWIDTH    11000 0
DWIDTH    11 0
BBX       11 12 0 -3
BITMAP
0000
0000
0000
df00
6180
6180
6180
6180
f3c0
0000
0000
0000
ENDCHAR
STARTCHAR 79
ENCODING  111
SWIDTH    9000 0
DWIDTH    9 0
BBX       9 12 0 -3
BITMAP
00
00
00
7e
c3
c3
c3
c3
7e
00
00
00
ENDCHAR
STARTCHAR 80
ENCODING  112
SWIDTH    10000 0
DWIDTH    10 0
BBX       10 12 0 -3
BITMAP
0000
0000
0000
ef00
7180
6180
6180
6180
7f00
6000
6000
f000
ENDCHAR
STARTCHAR 81
ENCODING  113
SWIDTH    11000 0
DWIDTH    11 0
BBX       11 12 0 -3
BITMAP
0000
0000
0000
7ec0
c300
c300
c300
c300
7f00
0300
0300
0f80
ENDCHAR
STARTCHAR 82
ENCODING  114
SWIDTH    10000 0
DWIDTH    10 0
BBX       10 12 0 -3
BITMAP
0000
0000
0000
ef00
7180
6000
6000
6000
f000
0000
0000
0000
ENDCHAR
STARTCHAR 83
ENCODING  115
SWIDTH    8000 0
DWIDTH    8 0
BBX       8 12 0 -3
BITMAP
00
00
00
7c
c2
70
1c
86
7c
00
00
00
ENDCHAR
STARTCHAR 84
ENCODING  116
SWIDTH    10000 0
DWIDTH    10 0
BBX       10 12 0 -3
BITMAP
10
30
30
fc
30
30
30
33
1e
00
00
00
ENDCHAR
STARTCHAR 85
ENCODING  117
SWIDTH    11000 0
DWIDTH    11 0
BBX       11 12 0 -3
BITMAP
0000
0000
0000
e380
6180
6180
6180
6180
3ec0
0000
0000
0000
ENDCHAR
STARTCHAR 86
ENCODING  118
SWIDTH    10000 0
DWIDTH    10 0
BBX       10 12 0 -3
BITMAP
0000
0000
0000
f380
6100
3200
3200
1c00
0800
0000
0000
0000
ENDCHAR
STARTCHAR 87
ENCODING  119
SWIDTH    14000 0
DWIDTH    14 0
BBX       14 12 0 -3
BITMAP
0000
0000
0000
e798
6310
6310
6310
3de0
18c0
0000
0000
0000
ENDCHAR
STARTCHAR 88
ENCODING  120
SWIDTH    11000 0
DWIDTH    11 0
BBX       11 12 0 -3
BITMAP
0000
0000
0000
f1c0
3100
1e00
2700
4180
e3c0
0000
0000
0000
ENDCHAR
STARTCHAR 89
ENCODING  121
SWIDTH    11000 0
DWIDTH    11 0
BBX       11 12 0 -3
BITMAP
0000
0000
0000
f1c0
6080
6080
3100
1a00
0c00
0800
9000
e000
ENDCHAR
STARTCHAR 90
ENCODING  122
SWIDTH    8000 0
DWIDTH    8 0
BBX       8 12 0 -3
BITMAP
00
00
00
fe
8c
18
30
62
fe
00
00
00
ENDCHAR
STARTCHAR 91
ENCODING  123
SWIDTH    9000 0
DWIDTH    9 0
BBX       9 12 0 -3
BITMAP
0f
18
18
18
f8
18
18
18
0f
00
00
00
ENDCHAR
STARTCHAR 92
ENCODING  124
SWIDTH    4000 0
DWIDTH    4 0
BBX       4 12 0 -3
BITMAP
c0
c0
c0
c0
c0
c0
c0
c0
c0
c0
c0
c0
ENDCHAR
STARTCHAR 93
ENCODING  125
SWIDTH    9000 0
DWIDTH    9 0
BBX       9 12 0 -3
BITMAP
f0
18
18
18
0f
18
18
18
f0
00
00
00
ENDCHAR
STARTCHAR 94
ENCODING  126
SWIDTH    10000 0
DWIDTH    10 0
BBX       10 12 0 -3
BITMAP
7980
cf00
0000
0000
0000
0000
0000
0000
0000
0000
0000
0000
ENDCHAR
STARTCHAR 95
ENCODING  127
SWIDTH    14000 0
DWIDTH    14 0
BBX       14 12 0 -3
BITMAP
cccc
3330
cccc
3330
cccc
3330
cccc
3330
cccc
3330
cccc
3330
ENDCHAR
STARTCHAR 96
ENCODING  128
SWIDTH    13000 0
DWIDTH    13 0
BBX       13 12 0 -3
BITMAP
1fc0
2020
4010
9d88
8e48
8c08
8c08
8c08
9e08
4010
2020
1fc0
ENDCHAR
STARTCHAR 97
ENCODING  129
SWIDTH    0 0
DWIDTH    0 0
BBX       0 12 0 -3
BITMAP
00
00
00
00
00
00
00
00
00
00
00
00
ENDCHAR
STARTCHAR 98
ENCODING  130
SWIDTH    0 0
DWIDTH    0 0
BBX       0 12 0 -3
BITMAP
00
00
00
00
00
00
00
00
00
00
00
00
ENDCHAR
STARTCHAR 99
ENCODING  131
SWIDTH    0 0
DWIDTH    0 0
BBX       0 12 0 -3
BITMAP
00
00
00
00
00
00
00
00
00
00
00
00
ENDCHAR
STARTCHAR 100
ENCODING  132
SWIDTH    0 0
DWIDTH    0 0
BBX       0 12 0 -3
BITMAP
00
00
00
00
00
00
00
00
00
00
00
00
ENDCHAR
STARTCHAR 101
ENCODING  133
SWIDTH    0 0
DWIDTH    0 0
BBX       0 12 0 -3
BITMAP
00
00
00
00
00
00
00
00
00
00
00
00
ENDCHAR
STARTCHAR 102
ENCODING  134
SWIDTH    0 0
DWIDTH    0 0
BBX       0 12 0 -3
BITMAP
00
00
00
00
00
00
00
00
00
00
00
00
ENDCHAR
STARTCHAR 103
ENCODING  135
SWIDTH    0 0
DWIDTH    0 0
BBX       0 12 0 -3
BITMAP
00
00
00
00
00
00
00
00
00
00
00
00
ENDCHAR
STARTCHAR 104
ENCODING  136
SWIDTH    0 0
DWIDTH    0 0
BBX       0 12 0 -3
BITMAP
00
00
00
00
00
00
00
00
00
00
00
00
ENDCHAR
STARTCHAR 105
ENCODING  137
SWIDTH    0 0
DWIDTH    0 0
BBX       0 12 0 -3
BITMAP
00
00
00
00
00
00
00
00
00
00
00
00
ENDCHAR
STARTCHAR 106
ENCODING  138
SWIDTH    0 0
DWIDTH    0 0
BBX       0 12 0 -3
BITMAP
00
00
00
00
00
00
00
00
00
00
00
00
ENDCHAR
STARTCHAR 107
ENCODING  139
SWIDTH    0 0
DWIDTH    0 0
BBX       0 12 0 -3
BITMAP
00
00
00
00
00
00
00
00
00
00
00
00
ENDCHAR
STARTCHAR 108
ENCODING  140
SWIDTH    0 0
DWIDTH    0 0
BBX       0 12 0 -3
BITMAP
00
00
00
00
00
00
00
00
00
00
00
00
ENDCHAR
STARTCHAR 109
ENCODING  141
SWIDTH    0 0
DWIDTH    0 0
BBX       0 12 0 -3
BITMAP
00
00
00
00
00
00
00
00
00
00
00
00
ENDCHAR
STARTCHAR 110
ENCODING  142
SWIDTH    0 0
DWIDTH    0 0
BBX       0 12 0 -3
BITMAP
00
00
00
00
00
00
00
00
00
00
00
00
ENDCHAR
STARTCHAR 111
ENCODING  143
SWIDTH    0 0
DWIDTH    0 0
BBX       0 12 0 -3
BITMAP
00
00
00
00
00
00
00
00
00
00
00
00
ENDCHAR
STARTCHAR 112
ENCODING  144
SWIDTH    0 0
DWIDTH    0 0
BBX       0 12 0 -3
BITMAP
00
00
00
00
00
00
00
00
00
00
00
00
ENDCHAR
STARTCHAR 113
ENCODING  145
SWIDTH    0 0
DWIDTH    0 0
BBX       0 12 0 -3
BITMAP
00
00
00
00
00
00
00
00
00
00
00
00
ENDCHAR
STARTCHAR 114
ENCODING  146
SWIDTH    0 0
DWIDTH    0 0
BBX       0 12 0 -3
BITMAP
00
00
00
00
00
00
00
00
00
00
00
00
ENDCHAR
STARTCHAR 115
ENCODING  147
SWIDTH    0 0
DWIDTH    0 0
BBX       0 12 0 -3
BITMAP
00
00
00
00
00
00
00
00
00
00
00
00
ENDCHAR
STARTCHAR 116
ENCODING  148
SWIDTH    0 0
DWIDTH    0 0
BBX       0 12 0 -3
BITMAP
00
00
00
00
00
00
00
00
00
00
00
00
ENDCHAR
STARTCHAR 117
ENCODING  149
SWIDTH    0 0
DWIDTH    0 0
BBX       0 12 0 -3
BITMAP
00
00
00
00
00
00
00
00
00
00
00
00
ENDCHAR
STARTCHAR 118
ENCODING  150
SWIDTH    0 0
DWIDTH    0 0
BBX       0 12 0 -3
BITMAP
00
00
00
00
00
00
00
00
00
00
00
00
ENDCHAR
STARTCHAR 119
ENCODING  151
SWIDTH    0 0
DWIDTH    0 0
BBX       0 12 0 -3
BITMAP
00
00
00
00
00
00
00
00
00
00
00
00
ENDCHAR
STARTCHAR 120
ENCODING  152
SWIDTH    0 0
DWIDTH    0 0
BBX       0 12 0 -3
BITMAP
00
00
00
00
00
00
00
00
00
00
00
00
ENDCHAR
STARTCHAR 121
ENCODING  153
SWIDTH    0 0
DWIDTH    0 0
BBX       0 12 0 -3
BITMAP
00
00
00
00
00
00
00
00
00
00
00
00
ENDCHAR
STARTCHAR 122
ENCODING  154
SWIDTH    0 0
DWIDTH    0 0
BBX       0 12 0 -3
BITMAP
00
00
00
00
00
00
00
00
00
00
00
00
ENDCHAR
STARTCHAR 123
ENCODING  155
SWIDTH    0 0
DWIDTH    0 0
BBX       0 12 0 -3
BITMAP
00
00
00
00
00
00
00
00
00
00
00
00
ENDCHAR
STARTCHAR 124
ENCODING  156
SWIDTH    0 0
DWIDTH    0 0
BBX       0 12 0 -3
BITMAP
00
00
00
00
00
00
00
00
00
00
00
00
ENDCHAR
STARTCHAR 125
ENCODING  157
SWIDTH    0 0
DWIDTH    0 0
BBX       0 12 0 -3
BITMAP
00
00
00
00
00
00
00
00
00
00
00
00
ENDCHAR
STARTCHAR 126
ENCODING  158
SWIDTH    0 0
DWIDTH    0 0
BBX       0 12 0 -3
BITMAP
00
00
00
00
00
00
00
00
00
00
00
00
ENDCHAR
STARTCHAR 127
ENCODING  159
SWIDTH    0 0
DWIDTH    0 0
BBX       0 12 0 -3
BITMAP
00
00
00
00
00
00
00
00
00
00
00
00
ENDCHAR
STARTCHAR 128
ENCODING  160
SWIDTH    0 0
DWIDTH    0 0
BBX       0 12 0 -3
BITMAP
00
00
00
00
00
00
00
00
00
00
00
00
ENDCHAR
STARTCHAR 129
ENCODING  161
SWIDTH    6000 0
DWIDTH    6 0
BBX       6 12 0 -3
BITMAP
60
60
00
60
60
60
f0
f0
60
00
00
00
ENDCHAR
STARTCHAR 130
ENCODING  162
SWIDTH    9000 0
DWIDTH    9 0
BBX       9 12 0 -3
BITMAP
18
18
7e
c3
c0
c1
7e
18
18
00
00
00
ENDCHAR
STARTCHAR 131
ENCODING  163
SWIDTH    10000 0
DWIDTH    10 0
BBX       10 12 0 -3
BITMAP
3c00
6600
6000
6000
fc00
6000
6000
6080
ff80
0000
0000
0000
ENDCHAR
STARTCHAR 132
ENCODING  164
SWIDTH    9000 0
DWIDTH    9 0
BBX       9 12 0 -3
BITMAP
c3
c3
7e
c3
c3
c3
7e
c3
c3
00
00
00
ENDCHAR
STARTCHAR 133
ENCODING  165
SWIDTH    11000 0
DWIDTH    11 0
BBX       11 12 0 -3
BITMAP
f1c0
6080
3100
1a00
0c00
3f00
0c00
0c00
1e00
0000
0000
0000
ENDCHAR
STARTCHAR 134
ENCODING  166
SWIDTH    4000 0
DWIDTH    4 0
BBX       4 12 0 -3
BITMAP
c0
c0
c0
c0
00
c0
c0
c0
c0
00
00
00
ENDCHAR
STARTCHAR 135
ENCODING  167
SWIDTH    9000 0
DWIDTH    9 0
BBX       9 12 0 -3
BITMAP
7f
c0
7e
c3
c3
c3
7e
03
fe
00
00
00
ENDCHAR
STARTCHAR 136
ENCODING  168
SWIDTH    9000 0
DWIDTH    9 0
BBX       9 12 0 -3
BITMAP
c3
00
00
00
00
00
00
00
00
00
00
00
ENDCHAR
STARTCHAR 137
ENCODING  169
SWIDTH    15000 0
DWIDTH    15 0
BBX       15 12 0 -3
BITMAP
1fe0
2010
4008
c78c
cccc
cc0c
cc0c
cc4c
4788
2010
1fe0
0000
ENDCHAR
STARTCHAR 138
ENCODING  170
SWIDTH    10000 0
DWIDTH    10 0
BBX       10 12 0 -3
BITMAP
7e00
8300
7f00
c300
7d80
0000
ff80
0000
0000
0000
0000
0000
ENDCHAR
STARTCHAR 139
ENCODING  171
SWIDTH    13000 0
DWIDTH    13 0
BBX       13 12 0 -3
BITMAP
0c30
1860
30c0
6180
c300
6180
30c0
1860
0c30
0000
0000
0000
ENDCHAR
STARTCHAR 140
ENCODING  172
SWIDTH    10000 0
DWIDTH    10 0
BBX       10 12 0 -3
BITMAP
ff80
0180
0180
0000
0000
0000
0000
0000
0000
0000
0000
0000
ENDCHAR
STARTCHAR 141
ENCODING  173
SWIDTH    9000 0
DWIDTH    9 0
BBX       9 12 0 -3
BITMAP
00
00
00
00
00
ff
00
00
00
00
00
00
ENDCHAR
STARTCHAR 142
ENCODING  174
SWIDTH    15000 0
DWIDTH    15 0
BBX       15 12 0 -3
BITMAP
1fe0
2010
4008
9fc4
8c64
8fe4
8cc4
9e64
4008
2010
1fe0
0000
ENDCHAR
STARTCHAR 143
ENCODING  175
SWIDTH    9000 0
DWIDTH    9 0
BBX       9 12 0 -3
BITMAP
ff
00
00
00
00
00
00
00
00
00
00
00
ENDCHAR
STARTCHAR 144
ENCODING  176
SWIDTH    8000 0
DWIDTH    8 0
BBX       8 12 0 -3
BITMAP
7c
c6
c6
7c
00
00
00
00
00
00
00
00
ENDCHAR
STARTCHAR 145
ENCODING  177
SWIDTH    9000 0
DWIDTH    9 0
BBX       9 12 0 -3
BITMAP
00
18
18
ff
18
18
00
ff
00
00
00
00
ENDCHAR
STARTCHAR 146
ENCODING  178
SWIDTH    8000 0
DWIDTH    8 0
BBX       8 12 0 -3
BITMAP
7c
86
18
32
fe
00
00
00
00
00
00
00
ENDCHAR
STARTCHAR 147
ENCODING  179
SWIDTH    8000 0
DWIDTH    8 0
BBX       8 12 0 -3
BITMAP
7c
86
1c
86
7c
00
00
00
00
00
00
00
ENDCHAR
STARTCHAR 148
ENCODING  180
SWIDTH    6000 0
DWIDTH    6 0
BBX       6 12 0 -3
BITMAP
38
60
c0
00
00
00
00
00
00
00
00
00
ENDCHAR
STARTCHAR 149
ENCODING  181
SWIDTH    11000 0
DWIDTH    11 0
BBX       11 12 0 -3
BITMAP
0000
0000
0000
e380
6180
6180
6180
6180
7ec0
6000
6000
6000
ENDCHAR
STARTCHAR 150
ENCODING  182
SWIDTH    14000 0
DWIDTH    14 0
BBX       14 12 0 -3
BITMAP
7ff0
c660
c660
c660
7e60
0660
0660
0660
0ff0
0000
0000
0000
ENDCHAR
STARTCHAR 151
ENCODING  183
SWIDTH    6000 0
DWIDTH    6 0
BBX       6 12 0 -3
BITMAP
00
00
00
f8
f8
f8
00
00
00
00
00
00
ENDCHAR
STARTCHAR 152
ENCODING  184
SWIDTH    3000 0
DWIDTH    3 0
BBX       3 12 0 -3
BITMAP
00
00
00
00
00
00
00
00
00
60
20
c0
ENDCHAR
STARTCHAR 153
ENCODING  185
SWIDTH    5000 0
DWIDTH    5 0
BBX       5 12 0 -3
BITMAP
60
e0
60
60
f0
00
00
00
00
00
00
00
ENDCHAR
STARTCHAR 154
ENCODING  186
SWIDTH    9000 0
DWIDTH    9 0
BBX       9 12 0 -3
BITMAP
7e
c3
c3
c3
7e
00
ff
00
00
00
00
00
ENDCHAR
STARTCHAR 155
ENCODING  187
SWIDTH    13000 0
DWIDTH    13 0
BBX       13 12 0 -3
BITMAP
c300
6180
30c0
1860
0c30
1860
30c0
6180
c300
0000
0000
0000
ENDCHAR
STARTCHAR 156
ENCODING  188
SWIDTH    15000 0
DWIDTH    15 0
BBX       15 12 0 -3
BITMAP
6020
e060
60c0
6198
f338
0658
0cfc
1818
303c
2000
0000
0000
ENDCHAR
STARTCHAR 157
ENCODING  189
SWIDTH    15000 0
DWIDTH    15 0
BBX       15 12 0 -3
BITMAP
6020
e060
60c0
6180
f338
064c
0c18
1864
30fc
2000
0000
0000
ENDCHAR
STARTCHAR 158
ENCODING  190
SWIDTH    15000 0
DWIDTH    15 0
BBX       15 12 0 -3
BITMAP
7010
8c30
1860
8cc0
7998
0338
0658
0cfc
1818
103c
0000
0000
ENDCHAR
STARTCHAR 159
ENCODING  191
SWIDTH    8000 0
DWIDTH    8 0
BBX       8 12 0 -3
BITMAP
30
30
00
30
30
60
c0
c6
7c
00
00
00
ENDCHAR
STARTCHAR 160
ENCODING  192
SWIDTH    12000 0
DWIDTH    12 0
BBX       12 12 0 -3
BITMAP
3800
0c00
0400
0e00
1300
2180
7fc0
40c0
e1e0
0000
0000
0000
ENDCHAR
STARTCHAR 161
ENCODING  193
SWIDTH    12000 0
DWIDTH    12 0
BBX       12 12 0 -3
BITMAP
0380
0600
0400
0e00
1300
2180
7fc0
40c0
e1e0
0000
0000
0000
ENDCHAR
STARTCHAR 162
ENCODING  194
SWIDTH    12000 0
DWIDTH    12 0
BBX       12 12 0 -3
BITMAP
0400
1b00
64c0
0e00
1300
2180
7fc0
40c0
e1e0
0000
0000
0000
ENDCHAR
STARTCHAR 163
ENCODING  195
SWIDTH    12000 0
DWIDTH    12 0
BBX       12 12 0 -3
BITMAP
3880
4700
0400
0e00
1300
2180
7fc0
40c0
e1e0
0000
0000
0000
ENDCHAR
STARTCHAR 164
ENCODING  196
SWIDTH    12000 0
DWIDTH    12 0
BBX       12 12 0 -3
BITMAP
c460
0e00
1300
1300
2180
3f80
40c0
40c0
e1e0
0000
0000
0000
ENDCHAR
STARTCHAR 165
ENCODING  197
SWIDTH    12000 0
DWIDTH    12 0
BBX       12 12 0 -3
BITMAP
1f00
3180
1f00
0e00
1300
2180
7fc0
40c0
e1e0
0000
0000
0000
ENDCHAR
STARTCHAR 166
ENCODING  198
SWIDTH    15000 0
DWIDTH    15 0
BBX       15 12 0 -3
BITMAP
07fc
0f04
1300
1310
23f0
3f10
4300
4304
e3fc
0000
0000
0000
ENDCHAR
STARTCHAR 167
ENCODING  199
SWIDTH    12000 0
DWIDTH    12 0
BBX       12 12 0 -3
BITMAP
3fa0
6060
c020
c000
c000
c000
c020
6040
3f80
0600
0200
0c00
ENDCHAR
STARTCHAR 168
ENCODING  200
SWIDTH    10000 0
DWIDTH    10 0
BBX       10 12 0 -3
BITMAP
1c00
0600
ff80
6080
6000
7e00
6000
6080
ff80
0000
0000
0000
ENDCHAR
STARTCHAR 169
ENCODING  201
SWIDTH    10000 0
DWIDTH    10 0
BBX       10 12 0 -3
BITMAP
0e00
1800
ff80
6080
6000
7e00
6000
6080
ff80
0000
0000
0000
ENDCHAR
STARTCHAR 170
ENCODING  202
SWIDTH    10000 0
DWIDTH    10 0
BBX       10 12 0 -3
BITMAP
0c00
3300
ff80
6080
6000
7e00
6000
6080
ff80
0000
0000
0000
ENDCHAR
STARTCHAR 171
ENCODING  203
SWIDTH    10000 0
DWIDTH    10 0
BBX       10 12 0 -3
BITMAP
6300
0000
ff80
6080
6000
7e00
6000
6080
ff80
0000
0000
0000
ENDCHAR
STARTCHAR 172
ENCODING  204
SWIDTH    7000 0
DWIDTH    7 0
BBX       7 12 0 -3
BITMAP
e0
30
fc
30
30
30
30
30
fc
00
00
00
ENDCHAR
STARTCHAR 173
ENCODING  205
SWIDTH    7000 0
DWIDTH    7 0
BBX       7 12 0 -3
BITMAP
1c
30
fc
30
30
30
30
30
fc
00
00
00
ENDCHAR
STARTCHAR 174
ENCODING  206
SWIDTH    7000 0
DWIDTH    7 0
BBX       7 12 0 -3
BITMAP
30
cc
fc
30
30
30
30
30
fc
00
00
00
ENDCHAR
STARTCHAR 175
ENCODING  207
SWIDTH    7000 0
DWIDTH    7 0
BBX       7 12 0 -3
BITMAP
cc
00
fc
30
30
30
30
30
fc
00
00
00
ENDCHAR
STARTCHAR 176
ENCODING  208
SWIDTH    12000 0
DWIDTH    12 0
BBX       12 12 0 -3
BITMAP
7f80
30c0
3060
3060
fc60
3060
3060
30c0
7f80
0000
0000
0000
ENDCHAR
STARTCHAR 177
ENCODING  209
SWIDTH    12000 0
DWIDTH    12 0
BBX       12 12 0 -3
BITMAP
3c40
4780
70e0
7840
5c40
4e40
4740
43c0
e1c0
0000
0000
0000
ENDCHAR
STARTCHAR 178
ENCODING  210
SWIDTH    12000 0
DWIDTH    12 0
BBX       12 12 0 -3
BITMAP
1c00
0600
3f80
60c0
c060
c060
c060
60c0
3f80
0000
0000
0000
ENDCHAR
STARTCHAR 179
ENCODING  211
SWIDTH    12000 0
DWIDTH    12 0
BBX       12 12 0 -3
BITMAP
0700
0c00
3f80
60c0
c060
c060
c060
60c0
3f80
0000
0000
0000
ENDCHAR
STARTCHAR 180
ENCODING  212
SWIDTH    12000 0
DWIDTH    12 0
BBX       12 12 0 -3
BITMAP
0e00
1100
3f80
60c0
c060
c060
c060
60c0
3f80
0000
0000
0000
ENDCHAR
STARTCHAR 181
ENCODING  213
SWIDTH    12000 0
DWIDTH    12 0
BBX       12 12 0 -3
BITMAP
3c80
4700
3f80
60c0
c060
c060
c060
60c0
3f80
0000
0000
0000
ENDCHAR
STARTCHAR 182
ENCODING  214
SWIDTH    12000 0
DWIDTH    12 0
BBX       12 12 0 -3
BITMAP
3180
0000
3f80
60c0
c060
c060
c060
60c0
3f80
0000
0000
0000
ENDCHAR
STARTCHAR 183
ENCODING  215
SWIDTH    11000 0
DWIDTH    11 0
BBX       11 12 0 -3
BITMAP
0000
0000
0000
c0c0
3300
0c00
3300
c0c0
0000
0000
0000
0000
ENDCHAR
STARTCHAR 184
ENCODING  216
SWIDTH    12000 0
DWIDTH    12 0
BBX       12 12 0 -3
BITMAP
3fa0
60c0
c160
c260
c460
c860
d060
60c0
bf80
0000
0000
0000
ENDCHAR
STARTCHAR 185
ENCODING  217
SWIDTH    12000 0
DWIDTH    12 0
BBX       12 12 0 -3
BITMAP
1c00
0600
f0e0
6040
6040
6040
6040
3080
1f00
0000
0000
0000
ENDCHAR
STARTCHAR 186
ENCODING  218
SWIDTH    12000 0
DWIDTH    12 0
BBX       12 12 0 -3
BITMAP
0380
0600
f0e0
6040
6040
6040
6040
3080
1f00
0000
0000
0000
ENDCHAR
STARTCHAR 187
ENCODING  219
SWIDTH    12000 0
DWIDTH    12 0
BBX       12 12 0 -3
BITMAP
0600
1980
f0e0
6040
6040
6040
6040
3080
1f00
0000
0000
0000
ENDCHAR
STARTCHAR 188
ENCODING  220
SWIDTH    12000 0
DWIDTH    12 0
BBX       12 12 0 -3
BITMAP
3180
0000
f0e0
6040
6040
6040
6040
3080
1f00
0000
0000
0000
ENDCHAR
STARTCHAR 189
ENCODING  221
SWIDTH    11000 0
DWIDTH    11 0
BBX       11 12 0 -3
BITMAP
0700
0c00
f1c0
6080
3100
1a00
0c00
0c00
1e00
0000
0000
0000
ENDCHAR
STARTCHAR 190
ENCODING  222
SWIDTH    12000 0
DWIDTH    12 0
BBX       12 12 0 -3
BITMAP
fc00
3000
3f80
3060
3060
3060
3060
3f80
3000
3000
3000
fc00
ENDCHAR
STARTCHAR 191
ENCODING  223
SWIDTH    11000 0
DWIDTH    11 0
BBX       11 12 0 -3
BITMAP
7f00
c180
c0c0
c180
c700
c180
c0c0
c180
cf00
c000
c000
c000
ENDCHAR
STARTCHAR 192
ENCODING  224
SWIDTH    11000 0
DWIDTH    11 0
BBX       11 12 0 -3
BITMAP
3800
0c00
0000
7f00
8180
3f80
4180
c180
7ec0
0000
0000
0000
ENDCHAR
STARTCHAR 193
ENCODING  225
SWIDTH    11000 0
DWIDTH    11 0
BBX       11 12 0 -3
BITMAP
0e00
1800
0000
7f00
8180
3f80
4180
c180
7ec0
0000
0000
0000
ENDCHAR
STARTCHAR 194
ENCODING  226
SWIDTH    11000 0
DWIDTH    11 0
BBX       11 12 0 -3
BITMAP
1800
6600
0000
7f00
8180
3f80
4180
c180
7ec0
0000
0000
0000
ENDCHAR
STARTCHAR 195
ENCODING  227
SWIDTH    11000 0
DWIDTH    11 0
BBX       11 12 0 -3
BITMAP
7900
8e00
0000
7f00
8180
3f80
4180
c180
7ec0
0000
0000
0000
ENDCHAR
STARTCHAR 196
ENCODING  228
SWIDTH    11000 0
DWIDTH    11 0
BBX       11 12 0 -3
BITMAP
0000
6300
0000
7f00
8180
3f80
4180
c180
7ec0
0000
0000
0000
ENDCHAR
STARTCHAR 197
ENCODING  229
SWIDTH    11000 0
DWIDTH    11 0
BBX       11 12 0 -3
BITMAP
3e00
6300
3e00
7f00
8180
3f80
4180
c180
7ec0
0000
0000
0000
ENDCHAR
STARTCHAR 198
ENCODING  230
SWIDTH    15000 0
DWIDTH    15 0
BBX       15 12 0 -3
BITMAP
0000
0000
0000
7ff8
830c
3ffc
4300
c304
7cf8
0000
0000
0000
ENDCHAR
STARTCHAR 199
ENCODING  231
SWIDTH    9000 0
DWIDTH    9 0
BBX       9 12 0 -3
BITMAP
00
00
00
7e
c3
c0
c0
c1
7e
18
10
60
ENDCHAR
STARTCHAR 200
ENCODING  232
SWIDTH    9000 0
DWIDTH    9 0
BBX       9 12 0 -3
BITMAP
70
18
00
7e
c3
ff
c0
c1
7e
00
00
00
ENDCHAR
STARTCHAR 201
ENCODING  233
SWIDTH    9000 0
DWIDTH    9 0
BBX       9 12 0 -3
BITMAP
0e
18
00
7e
c3
ff
c0
c1
7e
00
00
00
ENDCHAR
STARTCHAR 202
ENCODING  234
SWIDTH    9000 0
DWIDTH    9 0
BBX       9 12 0 -3
BITMAP
18
66
00
7e
c3
ff
c0
c1
7e
00
00
00
ENDCHAR
STARTCHAR 203
ENCODING  235
SWIDTH    9000 0
DWIDTH    9 0
BBX       9 12 0 -3
BITMAP
00
63
00
7e
c3
ff
c0
c1
7e
00
00
00
ENDCHAR
STARTCHAR 204
ENCODING  236
SWIDTH    6000 0
DWIDTH    6 0
BBX       6 12 0 -3
BITMAP
e0
30
00
e0
60
60
60
60
f0
00
00
00
ENDCHAR
STARTCHAR 205
ENCODING  237
SWIDTH    6000 0
DWIDTH    6 0
BBX       6 12 0 -3
BITMAP
70
c0
00
e0
60
60
60
60
f0
00
00
00
ENDCHAR
STARTCHAR 206
ENCODING  238
SWIDTH    7000 0
DWIDTH    7 0
BBX       7 12 0 -3
BITMAP
30
48
84
70
30
30
30
30
78
00
00
00
ENDCHAR
STARTCHAR 207
ENCODING  239
SWIDTH    7000 0
DWIDTH    7 0
BBX       7 12 0 -3
BITMAP
00
c6
00
38
18
18
18
18
3c
00
00
00
ENDCHAR
STARTCHAR 208
ENCODING  240
SWIDTH    11000 0
DWIDTH    11 0
BBX       11 12 0 -3
BITMAP
0300
0fc0
0300
7b00
c700
c300
c300
c300
7d80
0000
0000
0000
ENDCHAR
STARTCHAR 209
ENCODING  241
SWIDTH    11000 0
DWIDTH    11 0
BBX       11 12 0 -3
BITMAP
7880
8f00
0000
df00
6180
6180
6180
6180
f3c0
0000
0000
0000
ENDCHAR
STARTCHAR 210
ENCODING  242
SWIDTH    9000 0
DWIDTH    9 0
BBX       9 12 0 -3
BITMAP
70
18
00
7e
c3
c3
c3
c3
7e
00
00
00
ENDCHAR
STARTCHAR 211
ENCODING  243
SWIDTH    9000 0
DWIDTH    9 0
BBX       9 12 0 -3
BITMAP
0e
18
00
7e
c3
c3
c3
c3
7e
00
00
00
ENDCHAR
STARTCHAR 212
ENCODING  244
SWIDTH    9000 0
DWIDTH    9 0
BBX       9 12 0 -3
BITMAP
18
66
00
7e
c3
c3
c3
c3
7e
00
00
00
ENDCHAR
STARTCHAR 213
ENCODING  245
SWIDTH    9000 0
DWIDTH    9 0
BBX       9 12 0 -3
BITMAP
79
8e
00
7e
c3
c3
c3
c3
7e
00
00
00
ENDCHAR
STARTCHAR 214
ENCODING  246
SWIDTH    9000 0
DWIDTH    9 0
BBX       9 12 0 -3
BITMAP
00
c3
00
7e
c3
c3
c3
c3
7e
00
00
00
ENDCHAR
STARTCHAR 215
ENCODING  247
SWIDTH    11000 0
DWIDTH    11 0
BBX       11 12 0 -3
BITMAP
0000
0000
0c00
0000
ffc0
0000
0c00
0000
0000
0000
0000
0000
ENDCHAR
STARTCHAR 216
ENCODING  248
SWIDTH    9000 0
DWIDTH    9 0
BBX       9 12 0 -3
BITMAP
00
00
01
7e
c7
cb
d3
e3
7e
80
00
00
ENDCHAR
STARTCHAR 217
ENCODING  249
SWIDTH    10000 0
DWIDTH    10 0
BBX       10 12 0 -3
BITMAP
3800
0c00
0000
e380
6180
6180
6180
6180
3ec0
0000
0000
0000
ENDCHAR
STARTCHAR 218
ENCODING  250
SWIDTH    10000 0
DWIDTH    10 0
BBX       10 12 0 -3
BITMAP
0700
0c00
0000
e380
6180
6180
6180
6180
3ec0
0000
0000
0000
ENDCHAR
STARTCHAR 219
ENCODING  251
SWIDTH    10000 0
DWIDTH    10 0
BBX       10 12 0 -3
BITMAP
0c00
3300
0000
e380
6180
6180
6180
6180
3ec0
0000
0000
0000
ENDCHAR
STARTCHAR 220
ENCODING  252
SWIDTH    10000 0
DWIDTH    10 0
BBX       10 12 0 -3
BITMAP
0000
6180
0000
e380
6180
6180
6180
6180
3ec0
0000
0000
0000
ENDCHAR
STARTCHAR 221
ENCODING  253
SWIDTH    11000 0
DWIDTH    11 0
BBX       11 12 0 -3
BITMAP
0700
0c00
0000
f1c0
6080
6080
3100
1a00
0c00
0800
9000
e000
ENDCHAR
STARTCHAR 222
ENCODING  254
SWIDTH    10000 0
DWIDTH    10 0
BBX       10 12 0 -3
BITMAP
f000
6000
6000
6f00
7180
6180
6180
6180
7f00
6000
6000
f000
ENDCHAR
STARTCHAR 223
ENCODING  255
SWIDTH    0 0
DWIDTH    0 0
BBX       0 12 0 -3
BITMAP
00
00
00
00
00
00
00
00
00
00
00
00
ENDCHAR
ENDFONT
